# OBJ file
# Vertices: 22
v 0.2500 0.0000 1.0000
v -0.2500 0.0000 1.0000
v 0.2500 0.5878 0.8090
v -0.2500 0.5878 0.8090
v 0.2500 0.9511 0.3090
v -0.2500 0.9511 0.3090
v 0.2500 0.9511 -0.3090
v -0.2500 0.9511 -0.3090
v 0.2500 0.5878 -0.8090
v -0.2500 0.5878 -0.8090
v 0.2500 0.0000 -1.0000
v -0.2500 0.0000 -1.0000
v 0.2500 -0.5878 -0.8090
v -0.2500 -0.5878 -0.8090
v 0.2500 -0.9511 -0.3090
v -0.2500 -0.9511 -0.3090
v 0.2500 -0.9511 0.3090
v -0.2500 -0.9511 0.3090
v 0.2500 -0.5878 0.8090
v -0.2500 -0.5878 0.8090
v 0.2500 0.0000 0.0000
v -0.2500 0.0000 0.0000
# Normals: 40
vn 0.0000 0.3090 0.9511
vn 0.0000 0.3090 0.9511
vn 0.0000 0.8090 0.5878
vn 0.0000 0.8090 0.5878
vn 0.0000 1.0000 0.0000
vn 0.0000 1.0000 0.0000
vn 0.0000 0.8090 -0.5878
vn 0.0000 0.8090 -0.5878
vn 0.0000 0.3090 -0.9511
vn 0.0000 0.3090 -0.9511
vn 0.0000 -0.3090 -0.9511
vn 0.0000 -0.3090 -0.9511
vn 0.0000 -0.8090 -0.5878
vn 0.0000 -0.8090 -0.5878
vn 0.0000 -1.0000 -0.0000
vn 0.0000 -1.0000 -0.0000
vn 0.0000 -0.8090 0.5878
vn 0.0000 -0.8090 0.5878
vn 0.0000 -0.3090 0.9511
vn 0.0000 -0.3090 0.9511
vn 1.0000 0.0000 0.0000
vn 1.0000 0.0000 0.0000
vn 1.0000 -0.0000 0.0000
vn 1.0000 0.0000 0.0000
vn 1.0000 0.0000 0.0000
vn 1.0000 0.0000 0.0000
vn 1.0000 0.0000 0.0000
vn 1.0000 0.0000 0.0000
vn 1.0000 0.0000 0.0000
vn 1.0000 0.0000 -0.0000
vn -1.0000 0.0000 0.0000
vn -1.0000 0.0000 0.0000
vn -1.0000 0.0000 0.0000
vn -1.0000 0.0000 0.0000
vn -1.0000 0.0000 0.0000
vn -1.0000 0.0000 -0.0000
vn -1.0000 0.0000 0.0000
vn -1.0000 -0.0000 0.0000
vn -1.0000 0.0000 0.0000
vn -1.0000 0.0000 0.0000
# Faces: 40
f 4//1 2//1 1//1
f 1//2 3//2 4//2
f 6//3 4//3 3//3
f 3//4 5//4 6//4
f 8//5 6//5 5//5
f 5//6 7//6 8//6
f 10//7 8//7 7//7
f 7//8 9//8 10//8
f 12//9 10//9 9//9
f 9//10 11//10 12//10
f 14//11 12//11 11//11
f 11//12 13//12 14//12
f 16//13 14//13 13//13
f 13//14 15//14 16//14
f 18//15 16//15 15//15
f 15//16 17//16 18//16
f 20//17 18//17 17//17
f 17//18 19//18 20//18
f 2//19 20//19 19//19
f 19//20 1//20 2//20
f 21//21 3//21 1//21
f 21//22 5//22 3//22
f 21//23 7//23 5//23
f 21//24 9//24 7//24
f 21//25 11//25 9//25
f 21//26 13//26 11//26
f 21//27 15//27 13//27
f 21//28 17//28 15//28
f 21//29 19//29 17//29
f 21//30 1//30 19//30
f 22//31 2//31 4//31
f 22//32 4//32 6//32
f 22//33 6//33 8//33
f 22//34 8//34 10//34
f 22//35 10//35 12//35
f 22//36 12//36 14//36
f 22//37 14//37 16//37
f 22//38 16//38 18//38
f 22//39 18//39 20//39
f 22//40 20//40 2//40
