# OBJ file
# Vertices: 22
v 1.0000 0.0000 0.0000
v 1.0000 0.0000 0.5000
v 0.8090 0.5878 0.0000
v 0.8090 0.5878 0.5000
v 0.3090 0.9511 0.0000
v 0.3090 0.9511 0.5000
v -0.3090 0.9511 0.0000
v -0.3090 0.9511 0.5000
v -0.8090 0.5878 0.0000
v -0.8090 0.5878 0.5000
v -1.0000 0.0000 0.0000
v -1.0000 0.0000 0.5000
v -0.8090 -0.5878 0.0000
v -0.8090 -0.5878 0.5000
v -0.3090 -0.9511 0.0000
v -0.3090 -0.9511 0.5000
v 0.3090 -0.9511 0.0000
v 0.3090 -0.9511 0.5000
v 0.8090 -0.5878 0.0000
v 0.8090 -0.5878 0.5000
v 0.0000 0.0000 0.5000
v 0.0000 0.0000 0.0000
# Normals: 12
vn 1.0000 0.0000 0.0000
vn 0.8090 0.5878 0.0000
vn 0.3090 0.9511 0.0000
vn -0.3090 0.9511 0.0000
vn -0.8090 0.5878 0.0000
vn -1.0000 0.0000 0.0000
vn -0.8090 -0.5878 0.0000
vn -0.3090 -0.9511 0.0000
vn 0.3090 -0.9511 0.0000
vn 0.8090 -0.5878 0.0000
vn 0.0000 0.0000 -1.0000
vn 0.0000 0.0000 1.0000
# Faces: 22
f 1//1 3//1 4//1
f 4//1 2//1 1//1
f 3//2 5//2 6//2
f 6//2 4//2 3//2
f 5//3 7//3 8//3
f 8//3 6//3 5//3
f 7//4 9//4 10//4
f 10//4 8//4 7//4
f 9//5 11//5 12//5
f 12//5 10//5 9//5
f 11//6 13//6 14//6
f 14//6 12//6 11//6
f 13//7 15//7 16//7
f 16//7 14//7 13//7
f 15//8 17//8 18//8
f 18//8 16//8 15//8
f 17//9 19//9 20//9
f 20//9 18//9 17//9
f 19//10 1//10 2//10
f 2//10 20//10 19//10
f 22//11 3//11 1//11
f 22//11 5//11 3//11
f 22//11 7//11 5//11
f 22//11 9//11 7//11
f 22//11 11//11 9//11
f 22//11 13//11 11//11
f 22//11 15//11 13//11
f 22//11 17//11 15//11
f 22//11 19//11 17//11
f 22//11 1//11 19//11
f 21//12 2//12 4//12
f 21//12 4//12 6//12
f 21//12 6//12 8//12
f 21//12 8//12 10//12
f 21//12 10//12 12//12
f 21//12 12//12 14//12
f 21//12 14//12 16//12
f 21//12 16//12 18//12
f 21//12 18//12 20//12
f 21//12 20//12 2//12
